<?xml version="1.0" encoding="utf-8"?>
<!-- Generator: Adobe Illustrator 21.1.0, SVG Export Plug-In . SVG Version: 6.00 Build 0)  -->
<svg version="1.1" id="Layer_1" xmlns="http://www.w3.org/2000/svg" xmlns:xlink="http://www.w3.org/1999/xlink" x="0px" y="0px"
	 viewBox="0 0 300 63.8" style="enable-background:new 0 0 300 63.8;" xml:space="preserve">
<style type="text/css">
	.st0{fill:#FFFFFF;}
</style>
<g>
	<path class="st0" d="M39.6,18.5C38.8,11.2,34.4,7.1,26.4,7c-9,0-14.7,6.1-14.7,15.2c0,8.6,5.3,15.2,14.7,15.2
		c8.5,0,13.3-6.2,13.3-12.1h-8.8c-0.5,2.7-1.7,4.8-4.7,4.8c-4.2,0-5.5-4.1-5.5-8c0-3.9,1.3-8,5.5-8c3.7,0,4.5,3.2,4.7,4.3H39.6
		L39.6,18.5z M52.2,26.4l2.8-9h0.1l2.6,9H52.2L52.2,26.4z M40,36.8h9l1.3-4.2h9.2l1.2,4.2H70L59.4,7.7h-8.8L40,36.8L40,36.8z
		 M71.2,36.8h9V26.6h4.8c3.5,0,3.8,2.9,4,5.7c0.1,1.5,0.3,3,0.7,4.5h9c-0.8-1.3-0.9-4.8-1-6.2c-0.3-3.6-1.8-6.3-4.3-7.2
		c3-1.1,4.4-4.3,4.4-7.3c0-5.5-4.4-8.3-9.5-8.3H71.2V36.8L71.2,36.8z M80.1,14.6h4.2c3.4,0,4.4,1.1,4.4,2.9c0,2.6-2.3,2.9-3.9,2.9
		h-4.7V14.6L80.1,14.6z M101.4,36.8h24.5v-7.4h-15.5v-3.6h13.7v-6.9h-13.7v-3.6h15.1V7.7h-24.1V36.8L101.4,36.8z M129.3,36.8h24.5
		v-7.4h-15.5v-3.6h13.7v-6.9h-13.7v-3.6h15.1V7.7h-24.1V36.8L129.3,36.8z M157.1,36.8h9V26.6h4.8c3.5,0,3.8,2.9,4,5.7
		c0.1,1.5,0.3,3,0.7,4.5h9c-0.8-1.3-0.9-4.8-1-6.2c-0.3-3.6-1.8-6.3-4.3-7.2c3-1.1,4.4-4.3,4.4-7.3c0-5.5-4.4-8.3-9.5-8.3h-17.1
		V36.8L157.1,36.8z M166.1,14.6h4.2c3.4,0,4.4,1.1,4.4,2.9c0,2.6-2.3,2.9-3.9,2.9h-4.7V14.6L166.1,14.6z M185.4,27
		c0.1,9.3,9.5,10.5,12.8,10.5c6.5,0,13.4-2.4,13.4-10c0-5.3-4.1-7.2-8.2-8.4c-4.1-1.1-8.3-1.6-8.4-3.7c0-1.6,2-2,3.2-2
		c0.9,0,1.9,0.2,2.6,0.7c0.7,0.5,1.2,1.2,1.1,2.3h8.5c-0.2-7.1-5.8-9.5-12.1-9.5c-6,0-11.7,2.9-11.7,9.6c0,5.9,5.3,7.1,9.8,8.4
		c5,1.4,6.3,1.8,6.3,3.3c0,2.2-2.2,2.6-3.7,2.6c-1.7,0-3.6-0.4-4.3-2.1c-0.2-0.5-0.3-1.2-0.3-1.9H185.4L185.4,27z"/>
	<g>
		<path class="st0" d="M154.4,54.2l-2.6,3.8h-1.8l9.3-13h2l0.4,13h-1.9l0-3.8H154.4z M159.5,52.7l0-5.7h0l-4,5.7H159.5z"/>
		<path class="st0" d="M180.4,48.9c0.3-2.3-1.5-2.7-2.8-2.7c-2.4,0-4.9,1.7-6,5.2c-1,3.1-0.7,5.4,2.5,5.4c1.1,0,3.3-0.5,4.9-3.6h1.7
			c-2.4,4.9-6.4,5.1-7.4,5.1c-3,0-5.2-1.9-3.6-6.9c1.3-4,4.6-6.8,8.4-6.8c3.4,0,4.4,2.1,3.9,4.3H180.4z"/>
		<path class="st0" d="M183.3,51.4c0.8-2.3,2.6-3.2,5-3.2c0.8,0,3.5,0.2,2.6,2.7l-1.8,5.5c-0.1,0.4,0,0.6,0.3,0.6
			c0.1,0,0.4,0,0.6-0.1l-0.4,1.2c-0.3,0.1-0.6,0.2-0.9,0.2c-1.4,0-1.4-0.7-1.2-1.5c-0.8,0.7-2.1,1.5-3.9,1.5c-1.7,0-2.6-1.1-2.1-2.7
			c0.3-0.8,1.1-2.7,3.9-3l2.7-0.3c0.4,0,0.9-0.2,1.2-1.1c0.3-1-0.2-1.5-1.7-1.5c-1.8,0-2.4,1.1-2.8,1.8H183.3z M188.6,53.2
			c-0.3,0.2-0.8,0.3-2.8,0.6c-0.8,0.1-2.2,0.3-2.5,1.5c-0.3,1,0,1.7,1.2,1.7c1.5,0,3.3-1,3.7-2.2L188.6,53.2z"/>
		<path class="st0" d="M193.1,58h-1.6l3.2-9.5h1.5l-0.5,1.6h0c1-1.1,2.1-1.9,3.3-1.9c0.2,0,0.3,0,0.4,0.1l-0.6,1.7h-0.6
			c-1.5,0-2.8,1.2-3.3,2.5L193.1,58z"/>
		<path class="st0" d="M206.4,55c-0.2,0.5-1.1,1.8-2.6,2.6c-0.5,0.3-1.3,0.7-2.8,0.7c-2.7,0-3.6-2-2.7-4.8c1-2.9,3.2-5.3,6.3-5.3
			c2.7,0,3.4,2.2,2.2,5.5H200c-0.7,2-0.1,3.1,1.7,3.1c1.5,0,2.8-1.2,3.1-1.9H206.4z M205.7,52.5c0.4-1.5,0.2-2.8-1.7-2.8
			c-1.5,0-3.1,1.4-3.6,2.8H205.7z"/>
		<path class="st0" d="M216.5,55c-0.2,0.5-1.1,1.8-2.6,2.6c-0.5,0.3-1.3,0.7-2.8,0.7c-2.7,0-3.6-2-2.7-4.8c1-2.9,3.2-5.3,6.3-5.3
			c2.7,0,3.4,2.2,2.2,5.5h-6.9c-0.7,2-0.1,3.1,1.7,3.1c1.5,0,2.8-1.2,3.1-1.9H216.5z M215.8,52.5c0.4-1.5,0.2-2.8-1.7-2.8
			c-1.5,0-3.1,1.4-3.6,2.8H215.8z"/>
		<path class="st0" d="M219.3,58h-1.6l3.2-9.5h1.5l-0.5,1.6h0c1-1.1,2.1-1.9,3.3-1.9c0.2,0,0.3,0,0.4,0.1L225,50h-0.6
			c-1.5,0-2.8,1.2-3.3,2.5L219.3,58z"/>
		<path class="st0" d="M232.4,46.8L233,45h1.6l-0.6,1.8H232.4z M230.2,58h-1.6l3.2-9.5h1.6L230.2,58z"/>
		<path class="st0" d="M240.3,51.2c0.2-0.6,0.3-1.6-1.7-1.6c-0.5,0-1.9,0.2-2.3,1.3c-0.3,0.8,0.2,1,1.3,1.3l1.5,0.4
			c1.8,0.5,2.3,1.2,1.8,2.5c-0.7,2-2.7,3.1-4.8,3.1c-3.8,0-3.3-2.2-3-3.3h1.5c-0.2,0.7-0.4,1.9,1.9,1.9c1.1,0,2.3-0.5,2.7-1.5
			c0.3-0.8-0.2-1-1.4-1.4l-1.7-0.5c-1.2-0.3-1.9-1-1.4-2.3c0.7-2.1,2.7-3,4.6-3c3.4,0,2.8,2.5,2.6,3H240.3z"/>
		<path class="st0" d="M248.9,51.4c0.8-2.3,2.6-3.2,5-3.2c0.8,0,3.5,0.2,2.6,2.7l-1.8,5.5c-0.1,0.4,0,0.6,0.3,0.6
			c0.1,0,0.4,0,0.6-0.1l-0.4,1.2c-0.3,0.1-0.6,0.2-0.9,0.2c-1.4,0-1.4-0.7-1.2-1.5c-0.8,0.7-2.1,1.5-3.9,1.5c-1.7,0-2.6-1.1-2.1-2.7
			c0.3-0.8,1.1-2.7,3.9-3l2.7-0.3c0.4,0,0.9-0.2,1.2-1.1c0.3-1-0.2-1.5-1.7-1.5c-1.8,0-2.4,1.1-2.8,1.8H248.9z M254.2,53.2
			c-0.3,0.2-0.8,0.3-2.8,0.6c-0.8,0.1-2.2,0.3-2.5,1.5c-0.3,1,0,1.7,1.2,1.7c1.5,0,3.3-1,3.7-2.2L254.2,53.2z"/>
		<path class="st0" d="M264.4,56.5h6.6l-0.5,1.6h-8.4l4.3-13h1.8L264.4,56.5z"/>
		<path class="st0" d="M275.8,46.8l0.6-1.8h1.6l-0.6,1.8H275.8z M273.7,58h-1.6l3.2-9.5h1.6L273.7,58z"/>
		<path class="st0" d="M280.8,49.9L278,58h-1.6l2.7-8.2h-1.3l0.4-1.3h1.3l0.5-1.6c0.5-1.4,1.6-2.1,3.2-2.1c0.2,0,0.5,0,0.7,0
			l-0.5,1.4c-0.2,0-0.4,0-0.6,0c-0.7,0-1.1,0.3-1.3,1.1l-0.4,1.2h1.6l-0.4,1.3H280.8z"/>
		<path class="st0" d="M289.6,55c-0.2,0.5-1.1,1.8-2.6,2.6c-0.5,0.3-1.3,0.7-2.8,0.7c-2.7,0-3.6-2-2.7-4.8c1-2.9,3.2-5.3,6.3-5.3
			c2.7,0,3.4,2.2,2.2,5.5h-6.9c-0.7,2-0.1,3.1,1.7,3.1c1.5,0,2.8-1.2,3.1-1.9H289.6z M289,52.5c0.4-1.5,0.2-2.8-1.7-2.8
			c-1.5,0-3.1,1.4-3.6,2.8H289z"/>
	</g>
	<path class="st0" d="M227.9,22.3c3.9,0,10.7,0,10.7,6.5c0,5.8-4.9,7-8.9,7c-6.1,0-9.6-2.6-9.6-8.5h-1.9c0.1,7,4.4,10.2,11.3,10.2
		c7.4,0,11-3.5,11-8.2c0-6.1-4.3-7.7-7.1-7.8v-0.1c3.7-0.3,6.3-2.1,6.3-6.3c0-4.8-3.8-7.5-9.9-7.5c-6.5,0-10.7,2.8-10.9,9.6h1.9
		c0-5.6,3.6-8,9-8c4.2,0,8,1.4,8,6.2c0,5.4-5.6,5.4-10,5.4V22.3L227.9,22.3z M264.7,15c-0.3-4.5-4-7.5-9.6-7.5
		c-10.2,0-12,7.4-12,16.1c0,7.7,2.6,13.9,11.3,13.9c6.8,0,10.9-4.3,10.9-10c0-6.3-4.6-9.8-10.7-9.8c-5.6,0-8.7,3.2-9.6,6h-0.1
		c0-6.9,1-14.5,9.8-14.5c3.9,0,7.7,1.6,8.1,5.9H264.7L264.7,15z M254.7,19.3c5.6,0,8.7,3.5,8.7,8.1c0,5.1-3.6,8.4-8.8,8.4
		c-7.7,0-9.2-5.4-9.2-8.4C245.4,22.7,248.7,19.3,254.7,19.3L254.7,19.3z M291.7,22.4c0-8-3-15-12-15c-8.9,0-12,7-12,15
		c0,7.9,3.1,15,12,15C288.7,37.4,291.7,30.5,291.7,22.4L291.7,22.4z M289.8,22.4c0,7-2.2,13.4-10.1,13.4c-7.9,0-10.1-6.6-10.1-13.4
		c0-6.8,2.4-13.4,10.1-13.4C287.6,9.1,289.8,15.5,289.8,22.4L289.8,22.4z"/>
</g>
</svg>
