<svg id="Layer_1" data-name="Layer 1" xmlns="http://www.w3.org/2000/svg" viewBox="0 0 140 29.75"><defs><style>.cls-1{fill:#ec1c24;}.cls-2{fill:#3a4d95;}</style></defs><title>Careers360_Logo - A Career is a life</title><path class="cls-1" d="M19.62,9.12c-.36-3.38-2.4-5.33-6.1-5.35-4.16,0-6.84,2.82-6.84,7.07,0,4,2.48,7.07,6.84,7.07a5.8,5.8,0,0,0,6.16-5.61H15.59c-.25,1.27-.79,2.25-2.19,2.25-1.95,0-2.57-1.89-2.57-3.7s.62-3.7,2.57-3.7a2.16,2.16,0,0,1,2.17,2Zm5.88,3.65,1.3-4.16h0L28,12.77ZM19.8,17.59H24l.6-1.93h4.29l.57,1.93h4.31L28.84,4.09H24.77l-5,13.49Zm14.49,0h4.16V12.88h2.21c1.64,0,1.76,1.34,1.87,2.63a9.74,9.74,0,0,0,.34,2.08H47a8.89,8.89,0,0,1-.45-2.89c-.15-1.68-.85-2.93-2-3.36a3.46,3.46,0,0,0,2-3.38c0-2.55-2-3.86-4.4-3.86H34.3V17.59ZM38.46,7.3H40.4c1.59,0,2.06.49,2.06,1.34,0,1.21-1.06,1.34-1.83,1.34H38.46V7.3Zm9.89,10.28H59.72V14.13H52.5V12.45h6.37V9.23H52.5V7.55h7V4.09H48.34V17.59Zm12.93,0H72.65V14.13H65.43V12.45H71.8V9.23H65.43V7.55h7V4.09H61.27V17.59Zm12.93,0h4.16V12.88h2.21c1.64,0,1.76,1.34,1.87,2.63a9.76,9.76,0,0,0,.34,2.08h4.16a8.89,8.89,0,0,1-.45-2.89c-.15-1.68-.85-2.93-2-3.36a3.46,3.46,0,0,0,2-3.38c0-2.55-2-3.86-4.4-3.86H74.2V17.59ZM78.35,7.3H80.3c1.59,0,2.06.49,2.06,1.34,0,1.21-1.06,1.34-1.83,1.34H78.35V7.3Zm9,5.75c0,4.31,4.4,4.86,5.93,4.86,3,0,6.24-1.13,6.24-4.65,0-2.48-1.89-3.36-3.8-3.89s-3.84-.74-3.91-1.7c0-.76.93-.91,1.49-.91a2.16,2.16,0,0,1,1.23.34A1,1,0,0,1,95,8.17H99c-.11-3.29-2.7-4.4-5.63-4.4-2.78,0-5.44,1.34-5.44,4.46,0,2.72,2.44,3.31,4.57,3.91,2.32.66,2.91.85,2.91,1.55,0,1-1,1.23-1.72,1.23a1.92,1.92,0,0,1-2-1,2.49,2.49,0,0,1-.15-.89Z"/><path class="cls-2" d="M72.92,25.69,71.7,27.46h-.84l4.3-6.06h.93l.18,6.06h-.89V25.69ZM75.3,25V22.3h0L73.42,25Z"/><path class="cls-2" d="M85,23.22c.13-1.06-.69-1.26-1.28-1.26A3.12,3.12,0,0,0,81,24.37c-.48,1.43-.33,2.52,1.17,2.52a2.66,2.66,0,0,0,2.28-1.66h.79a3.8,3.8,0,0,1-3.44,2.39c-1.38,0-2.43-.89-1.65-3.22A4.24,4.24,0,0,1,84,21.24c1.56,0,2,1,1.83,2Z"/><path class="cls-2" d="M86.35,24.38a2.21,2.21,0,0,1,2.31-1.47c.35,0,1.6.1,1.23,1.23L89,26.69c-.06.19,0,.26.16.26l.26,0-.18.54a1.67,1.67,0,0,1-.43.08c-.66,0-.65-.34-.56-.67a2.84,2.84,0,0,1-1.83.72c-.81,0-1.21-.51-1-1.27a2,2,0,0,1,1.8-1.38l1.27-.15c.18,0,.42-.08.56-.52s-.1-.72-.8-.72a1.31,1.31,0,0,0-1.3.85Zm2.44.82a3.43,3.43,0,0,1-1.32.28c-.38.05-1,.16-1.18.72s0,.77.55.77a1.89,1.89,0,0,0,1.71-1Z"/><path class="cls-2" d="M90.89,27.46h-.74L91.62,23h.7l-.24.73h0a2.16,2.16,0,0,1,1.53-.86.52.52,0,0,1,.19,0l-.26.77h-.28a1.7,1.7,0,0,0-1.52,1.18Z"/><path class="cls-2" d="M97.06,26.07a3,3,0,0,1-1.19,1.21,2.42,2.42,0,0,1-1.3.3c-1.24,0-1.66-.94-1.24-2.21a3.2,3.2,0,0,1,2.94-2.46c1.27,0,1.56,1,1,2.57H94.09c-.31.92-.05,1.45.8,1.45a1.7,1.7,0,0,0,1.43-.87Zm-.32-1.17c.19-.68.11-1.32-.79-1.32a2,2,0,0,0-1.66,1.32Z"/><path class="cls-2" d="M101.75,26.07a3,3,0,0,1-1.19,1.21,2.42,2.42,0,0,1-1.3.3c-1.24,0-1.66-.94-1.24-2.21A3.2,3.2,0,0,1,101,22.92c1.27,0,1.56,1,1,2.57H98.78c-.31.92-.05,1.45.8,1.45a1.7,1.7,0,0,0,1.43-.87Zm-.32-1.17c.19-.68.11-1.32-.79-1.32A2,2,0,0,0,99,24.9Z"/><path class="cls-2" d="M103.08,27.46h-.74L103.81,23h.7l-.24.73h0a2.16,2.16,0,0,1,1.53-.86.52.52,0,0,1,.19,0l-.26.77h-.28a1.7,1.7,0,0,0-1.52,1.18Z"/><path class="cls-2" d="M109.14,22.24l.28-.84h.74l-.28.84Zm-1,5.21h-.74L108.88,23h.74Z"/><path class="cls-2" d="M112.82,24.3c.08-.28.14-.74-.8-.74-.23,0-.9.08-1.09.62-.12.36.08.45.6.59l.68.19c.84.23,1.05.57.85,1.16a2.29,2.29,0,0,1-2.23,1.46c-1.75,0-1.54-1-1.38-1.54h.72c-.09.35-.17.9.87.9a1.23,1.23,0,0,0,1.25-.7c.12-.35-.09-.47-.67-.63l-.79-.21c-.57-.15-.87-.46-.66-1.07a2.18,2.18,0,0,1,2.14-1.41c1.58,0,1.3,1.16,1.23,1.38Z"/><path class="cls-2" d="M116.83,24.38a2.21,2.21,0,0,1,2.31-1.47c.35,0,1.6.1,1.23,1.23l-.85,2.54c-.06.19,0,.26.16.26l.26,0-.18.54a1.67,1.67,0,0,1-.43.08c-.66,0-.65-.34-.56-.67a2.84,2.84,0,0,1-1.83.72c-.81,0-1.21-.51-1-1.27a2,2,0,0,1,1.8-1.38l1.27-.15c.18,0,.42-.08.56-.52s-.1-.72-.8-.72a1.31,1.31,0,0,0-1.3.85Zm2.44.82a3.43,3.43,0,0,1-1.32.28c-.38.05-1,.16-1.18.72s0,.77.55.77a1.89,1.89,0,0,0,1.71-1Z"/><path class="cls-2" d="M124,26.73h3.07l-.24.73H123l2-6.06h.82Z"/><path class="cls-2" d="M129.31,22.24l.28-.84h.74l-.28.84Zm-1,5.21h-.74L129,23h.74Z"/><path class="cls-2" d="M131.61,23.66l-1.26,3.8h-.74l1.26-3.8h-.61l.21-.62h.61l.25-.76a1.4,1.4,0,0,1,1.47-1l.33,0-.22.67-.3,0c-.32,0-.49.16-.61.51l-.18.55h.74l-.21.62Z"/><path class="cls-2" d="M135.73,26.07a3,3,0,0,1-1.19,1.21,2.42,2.42,0,0,1-1.3.3c-1.24,0-1.66-.94-1.24-2.21a3.2,3.2,0,0,1,2.94-2.46c1.27,0,1.56,1,1,2.57h-3.22c-.31.92-.05,1.45.8,1.45a1.7,1.7,0,0,0,1.43-.87Zm-.32-1.17c.19-.68.11-1.32-.79-1.32A2,2,0,0,0,133,24.9Z"/><path class="cls-1" d="M107.06,10.86c1.81,0,5,0,5,3,0,2.68-2.29,3.25-4.14,3.25-2.85,0-4.48-1.19-4.48-4h-.87c0,3.27,2,4.72,5.25,4.72,3.42,0,5.1-1.61,5.1-3.82a3.29,3.29,0,0,0-3.29-3.63v0c1.72-.15,2.95-1,2.95-2.93,0-2.23-1.76-3.5-4.59-3.5-3,0-5,1.3-5.06,4.46h.87c0-2.61,1.68-3.7,4.2-3.7,1.95,0,3.72.64,3.72,2.87,0,2.49-2.61,2.49-4.65,2.49v.76Zm17.08-3.4C124,5.38,122.27,4,119.66,4c-4.72,0-5.59,3.42-5.59,7.46,0,3.59,1.23,6.44,5.25,6.44,3.14,0,5.06-2,5.06-4.65,0-2.91-2.15-4.54-5-4.54A4.42,4.42,0,0,0,115,11.48h0c0-3.19.47-6.75,4.57-6.75,1.8,0,3.57.74,3.76,2.72Zm-4.65,2c2.61,0,4,1.63,4,3.78a3.77,3.77,0,0,1-4.06,3.89c-3.57,0-4.29-2.51-4.29-3.89,0-2.19,1.55-3.78,4.33-3.78Zm17.18,1.47c0-3.7-1.38-7-5.57-7s-5.57,3.27-5.57,7,1.42,7,5.57,7,5.57-3.21,5.57-7Zm-.87,0c0,3.23-1,6.2-4.71,6.2s-4.71-3.06-4.71-6.2,1.1-6.2,4.71-6.2,4.71,3,4.71,6.2Z"/></svg>